<svg width="143" height="134" viewBox="0 0 143 134" fill="none" xmlns="http://www.w3.org/2000/svg">
<ellipse cx="70.0564" cy="77.0564" rx="22.0564" ry="22.0564" fill="url(#paint0_radial_44_386)"/>
<ellipse cx="70.0564" cy="77.0564" rx="22.0564" ry="22.0564" fill="url(#paint1_radial_44_386)" style="mix-blend-mode:overlay"/>
<ellipse cx="70.0564" cy="77.0564" rx="22.0564" ry="22.0564" fill="url(#paint2_radial_44_386)" style="mix-blend-mode:soft-light"/>
<g filter="url(#filter0_f_44_386)">
<ellipse cx="71.7211" cy="67.0014" rx="4.81214" ry="9.54799" transform="rotate(-76.4765 71.7211 67.0014)" fill="#74819B"/>
<path d="M72.7294 62.8088C75.2333 63.411 77.3528 64.463 78.7578 65.6533C80.1874 66.8645 80.7613 68.1065 80.5182 69.1172C80.2751 70.1279 79.1993 70.9732 77.3752 71.4018C75.5826 71.8231 73.2165 71.7962 70.7127 71.194C68.2088 70.5918 66.0893 69.5398 64.6843 68.3495C63.2547 67.1383 62.6808 65.8963 62.9239 64.8856C63.167 63.8749 64.2428 63.0296 66.0669 62.601C67.8595 62.1797 70.2256 62.2066 72.7294 62.8088Z" stroke="black"/>
</g>
<g filter="url(#filter1_f_44_386)">
<circle cx="59.9414" cy="72.2928" r="0.717813" fill="white"/>
</g>
<g filter="url(#filter2_f_44_386)">
<ellipse cx="65.7352" cy="62.4853" rx="0.578793" ry="0.39792" transform="rotate(-9.88469 65.7352 62.4853)" fill="white"/>
</g>
<g filter="url(#filter3_f_44_386)">
<ellipse cx="67.5888" cy="62.1623" rx="0.940539" ry="0.614968" transform="rotate(-9.88469 67.5888 62.1623)" fill="white"/>
</g>
<g filter="url(#filter4_f_44_386)">
<path fill-rule="evenodd" clip-rule="evenodd" d="M63.6085 68.206C63.9712 68.0795 64.6167 68.0427 65.0008 68.0394C65.0933 68.0387 65.1872 68.023 65.2793 67.9909C65.7318 67.8331 65.9706 67.3384 65.8128 66.886C65.655 66.4336 65.1604 66.1947 64.708 66.3525C64.4791 66.4323 64.1216 66.4 63.9303 66.2512C63.6384 66.0242 63.2409 65.9453 62.8657 66.0761C62.2776 66.2812 61.9671 66.9243 62.1722 67.5124C62.3773 68.1006 63.0204 68.4111 63.6085 68.206ZM68.0124 67.4979C67.9676 67.5431 67.8717 67.5215 67.8508 67.4614C67.693 67.009 67.1983 66.7702 66.7459 66.928C66.2935 67.0857 66.0547 67.5804 66.2124 68.0328C66.3702 68.4852 66.8649 68.7241 67.3173 68.5663C67.4461 68.5214 67.5576 68.4492 67.6475 68.3584C67.6923 68.3132 67.7882 68.3349 67.8091 68.3949C67.9669 68.8473 68.4616 69.0862 68.914 68.9284C69.0053 68.8966 69.1123 68.9289 69.1811 68.9969C69.3526 69.1663 69.6345 69.2285 69.9048 69.1342C70.0658 69.0781 70.2886 69.0947 70.442 69.1691C70.539 69.2161 70.6551 69.2531 70.7822 69.2741C71.1604 69.3366 71.4923 69.234 71.5236 69.045C71.5548 68.8559 71.2736 68.6519 70.8954 68.5893C70.8146 68.576 70.7359 68.5702 70.6618 68.5711C70.5337 68.5727 70.4023 68.4532 70.3601 68.3322C70.2497 68.0156 69.8668 67.8612 69.5048 67.9874C69.4963 67.9905 69.4871 67.9849 69.4857 67.9759C69.4777 67.925 69.4651 67.874 69.4475 67.8235C69.2897 67.3711 68.795 67.1323 68.3426 67.2901C68.2138 67.335 68.1023 67.4072 68.0124 67.4979ZM76.5117 71.5409C76.6695 71.9933 76.4306 72.488 75.9782 72.6458C75.5258 72.8035 75.0311 72.5647 74.8733 72.1123C74.8045 71.9149 74.5926 71.7236 74.3962 71.6518C74.232 71.5917 74.1004 71.4706 74.0428 71.3055C74.0279 71.2629 74.0187 71.2195 74.0149 71.176C74.0024 71.036 73.8949 70.8737 73.7562 70.8508C73.378 70.7883 73.0968 70.5843 73.1281 70.3952C73.1593 70.2061 73.4913 70.1035 73.8694 70.1661C74.1625 70.2145 74.3974 70.348 74.4737 70.4936C74.4783 70.5024 74.4887 70.5068 74.4981 70.5035C74.86 70.3773 75.243 70.5317 75.3534 70.8484C75.3698 70.8953 75.3793 70.9431 75.3823 70.991C75.3831 71.0032 75.3953 71.0114 75.4068 71.0074C75.8592 70.8496 76.3539 71.0885 76.5117 71.5409Z" fill="white" fill-opacity="0.5"/>
</g>
<mask id="mask0_44_386" style="mask-type:alpha" maskUnits="userSpaceOnUse" x="48" y="55" width="45" height="45">
<ellipse cx="70.0564" cy="77.0564" rx="22.0564" ry="22.0564" fill="url(#paint3_radial_44_386)"/>
<ellipse cx="70.0564" cy="77.0564" rx="22.0564" ry="22.0564" fill="url(#paint4_radial_44_386)"/>
<ellipse cx="70.0564" cy="77.0564" rx="22.0564" ry="22.0564" fill="url(#paint5_radial_44_386)"/>
</mask>
<g mask="url(#mask0_44_386)">
<g filter="url(#filter5_f_44_386)">
<path d="M87.3049 71.575C87.3049 71.575 91.8662 78.3552 92.1127 81.3755C86.5653 112.257 57.9802 110.095 66.964 101.531C78.1282 90.8896 87.3049 90.4968 87.3049 71.575Z" fill="white" fill-opacity="0.08"/>
</g>
</g>
<defs>
<filter id="filter0_f_44_386" x="0.759014" y="0.205914" width="141.924" height="133.591" filterUnits="userSpaceOnUse" color-interpolation-filters="sRGB">
<feFlood flood-opacity="0" result="BackgroundImageFix"/>
<feBlend mode="normal" in="SourceGraphic" in2="BackgroundImageFix" result="shape"/>
<feGaussianBlur stdDeviation="30.8051" result="effect1_foregroundBlur_44_386"/>
</filter>
<filter id="filter1_f_44_386" x="55.9378" y="68.2891" width="8.00729" height="8.00739" filterUnits="userSpaceOnUse" color-interpolation-filters="sRGB">
<feFlood flood-opacity="0" result="BackgroundImageFix"/>
<feBlend mode="normal" in="SourceGraphic" in2="BackgroundImageFix" result="shape"/>
<feGaussianBlur stdDeviation="1.64294" result="effect1_foregroundBlur_44_386"/>
</filter>
<filter id="filter2_f_44_386" x="61.8753" y="58.7949" width="7.72018" height="7.38077" filterUnits="userSpaceOnUse" color-interpolation-filters="sRGB">
<feFlood flood-opacity="0" result="BackgroundImageFix"/>
<feBlend mode="normal" in="SourceGraphic" in2="BackgroundImageFix" result="shape"/>
<feGaussianBlur stdDeviation="1.64294" result="effect1_foregroundBlur_44_386"/>
</filter>
<filter id="filter3_f_44_386" x="63.3704" y="58.2493" width="8.43698" height="7.82605" filterUnits="userSpaceOnUse" color-interpolation-filters="sRGB">
<feFlood flood-opacity="0" result="BackgroundImageFix"/>
<feBlend mode="normal" in="SourceGraphic" in2="BackgroundImageFix" result="shape"/>
<feGaussianBlur stdDeviation="1.64294" result="effect1_foregroundBlur_44_386"/>
</filter>
<filter id="filter4_f_44_386" x="58.833" y="62.7365" width="21.0039" height="13.2342" filterUnits="userSpaceOnUse" color-interpolation-filters="sRGB">
<feFlood flood-opacity="0" result="BackgroundImageFix"/>
<feBlend mode="normal" in="SourceGraphic" in2="BackgroundImageFix" result="shape"/>
<feGaussianBlur stdDeviation="1.63819" result="effect1_foregroundBlur_44_386"/>
</filter>
<filter id="filter5_f_44_386" x="60.3017" y="66.6461" width="36.7395" height="45.3425" filterUnits="userSpaceOnUse" color-interpolation-filters="sRGB">
<feFlood flood-opacity="0" result="BackgroundImageFix"/>
<feBlend mode="normal" in="SourceGraphic" in2="BackgroundImageFix" result="shape"/>
<feGaussianBlur stdDeviation="2.46441" result="effect1_foregroundBlur_44_386"/>
</filter>
<radialGradient id="paint0_radial_44_386" cx="0" cy="0" r="1" gradientUnits="userSpaceOnUse" gradientTransform="translate(63.5961 72.4885) rotate(25.085) scale(49.7156 48.2604)">
<stop offset="0.354167" stop-color="#91A4C9"/>
<stop offset="0.810035" stop-color="#454D5D"/>
</radialGradient>
<radialGradient id="paint1_radial_44_386" cx="0" cy="0" r="1" gradientUnits="userSpaceOnUse" gradientTransform="translate(59.746 90.5643) rotate(-53.858) scale(28.767 32.1496)">
<stop stop-opacity="0.61"/>
<stop offset="1" stop-opacity="0"/>
</radialGradient>
<radialGradient id="paint2_radial_44_386" cx="0" cy="0" r="1" gradientUnits="userSpaceOnUse" gradientTransform="translate(83.6949 77.0564) rotate(180) scale(37.6525 30.2945)">
<stop stop-color="white" stop-opacity="0"/>
<stop offset="0.827012" stop-color="white" stop-opacity="0"/>
<stop offset="1" stop-color="white"/>
</radialGradient>
<radialGradient id="paint3_radial_44_386" cx="0" cy="0" r="1" gradientUnits="userSpaceOnUse" gradientTransform="translate(63.5961 72.4885) rotate(25.085) scale(49.7156 48.2604)">
<stop offset="0.354167" stop-color="#91A4C9"/>
<stop offset="0.810035" stop-color="#485264"/>
</radialGradient>
<radialGradient id="paint4_radial_44_386" cx="0" cy="0" r="1" gradientUnits="userSpaceOnUse" gradientTransform="translate(59.746 90.5643) rotate(-53.858) scale(28.767 32.1496)">
<stop stop-opacity="0.61"/>
<stop offset="1" stop-opacity="0"/>
</radialGradient>
<radialGradient id="paint5_radial_44_386" cx="0" cy="0" r="1" gradientUnits="userSpaceOnUse" gradientTransform="translate(83.6949 77.0564) rotate(180) scale(37.6525 30.2945)">
<stop stop-color="white" stop-opacity="0"/>
<stop offset="0.827012" stop-color="white" stop-opacity="0"/>
<stop offset="1" stop-color="white"/>
</radialGradient>
</defs>
</svg>
