<svg width="337" height="317" viewBox="0 0 337 317" fill="none" xmlns="http://www.w3.org/2000/svg">
<path d="M164.293 234.586C193.174 234.586 216.586 211.174 216.586 182.293C216.586 153.412 193.174 130 164.293 130C135.412 130 112 153.412 112 182.293C112 211.174 135.412 234.586 164.293 234.586Z" fill="url(#paint0_radial_149_561)"/>
<path style="mix-blend-mode:overlay" d="M164.293 234.586C193.174 234.586 216.586 211.174 216.586 182.293C216.586 153.412 193.174 130 164.293 130C135.412 130 112 153.412 112 182.293C112 211.174 135.412 234.586 164.293 234.586Z" fill="url(#paint1_radial_149_561)"/>
<path style="mix-blend-mode:soft-light" d="M164.293 234.586C193.174 234.586 216.586 211.174 216.586 182.293C216.586 153.412 193.174 130 164.293 130C135.412 130 112 153.412 112 182.293C112 211.174 135.412 234.586 164.293 234.586Z" fill="url(#paint2_radial_149_561)"/>
<g filter="url(#filter0_f_149_561)">
<path d="M190.249 163.748C191.722 157.621 183.062 150.285 170.907 147.361C158.751 144.438 147.703 147.034 146.229 153.16C144.756 159.287 153.416 166.623 165.571 169.547C177.727 172.47 188.775 169.874 190.249 163.748Z" fill="#91A4C9"/>
</g>
<g filter="url(#filter1_f_149_561)">
<path d="M140.313 172.701C141.253 172.701 142.015 171.939 142.015 170.999C142.015 170.059 141.253 169.297 140.313 169.297C139.373 169.297 138.611 170.059 138.611 170.999C138.611 171.939 139.373 172.701 140.313 172.701Z" fill="white"/>
</g>
<g filter="url(#filter2_f_149_561)">
<path d="M154.211 148.676C154.958 148.546 155.49 148.025 155.401 147.512C155.311 146.998 154.634 146.688 153.887 146.818C153.14 146.948 152.608 147.469 152.697 147.983C152.787 148.496 153.464 148.807 154.211 148.676Z" fill="white"/>
</g>
<g filter="url(#filter3_f_149_561)">
<path d="M158.693 148.417C159.906 148.206 160.777 147.392 160.639 146.598C160.501 145.805 159.405 145.333 158.192 145.545C156.979 145.756 156.107 146.571 156.245 147.364C156.384 148.157 157.479 148.629 158.693 148.417Z" fill="white"/>
</g>
<g filter="url(#filter4_f_149_561)">
<path fill-rule="evenodd" clip-rule="evenodd" d="M149.007 161.31C149.867 161.01 151.397 160.923 152.308 160.915C152.527 160.913 152.749 160.876 152.968 160.8C154.04 160.426 154.607 159.253 154.233 158.18C153.859 157.108 152.686 156.541 151.613 156.915C151.071 157.105 150.223 157.028 149.769 156.675C149.077 156.137 148.135 155.95 147.246 156.26C145.851 156.747 145.115 158.271 145.601 159.666C146.088 161.06 147.612 161.796 149.007 161.31ZM159.448 159.631C159.342 159.738 159.115 159.687 159.066 159.545C158.691 158.472 157.519 157.906 156.446 158.28C155.373 158.654 154.807 159.827 155.181 160.899C155.555 161.972 156.728 162.538 157.801 162.164C158.106 162.058 158.37 161.887 158.584 161.671C158.69 161.564 158.917 161.616 158.966 161.758C159.34 162.83 160.513 163.397 161.586 163.023C161.802 162.947 162.055 163.024 162.218 163.185C162.624 163.586 163.293 163.734 163.934 163.511C164.316 163.377 164.845 163.417 165.209 163.593C165.439 163.705 165.714 163.792 166.015 163.842C166.912 163.99 167.699 163.747 167.773 163.299C167.847 162.851 167.18 162.367 166.284 162.219C166.092 162.187 165.905 162.173 165.729 162.176C165.425 162.18 165.114 161.896 165.013 161.609C164.752 160.858 163.844 160.492 162.986 160.792C162.978 160.794 162.971 160.797 162.964 160.799C162.955 160.802 162.946 160.797 162.945 160.788C162.926 160.659 162.895 160.531 162.851 160.403C162.477 159.331 161.304 158.764 160.231 159.138C159.926 159.245 159.662 159.416 159.448 159.631ZM179.599 169.216C179.973 170.289 179.407 171.462 178.334 171.836C177.262 172.21 176.089 171.644 175.715 170.571C175.551 170.103 175.049 169.65 174.583 169.48C174.194 169.337 173.881 169.05 173.745 168.658C173.71 168.557 173.688 168.454 173.679 168.351C173.649 168.019 173.395 167.635 173.066 167.58C172.169 167.432 171.503 166.949 171.577 166.5C171.651 166.052 172.438 165.809 173.335 165.957C174.03 166.072 174.586 166.388 174.767 166.734C174.778 166.754 174.802 166.765 174.824 166.757C175.683 166.458 176.59 166.824 176.852 167.575C176.891 167.686 176.914 167.799 176.921 167.912C176.923 167.941 176.952 167.961 176.98 167.952C178.052 167.578 179.225 168.144 179.599 169.216Z" fill="white" fill-opacity="0.5"/>
</g>
<g clip-path="url(#clip0_149_561)">
<path d="M120.056 229.113C132.238 229.113 142.113 219.238 142.113 207.056C142.113 194.875 132.238 185 120.056 185C107.875 185 98 194.875 98 207.056C98 219.238 107.875 229.113 120.056 229.113Z" fill="url(#paint3_radial_149_561)"/>
<path style="mix-blend-mode:overlay" d="M120.056 229.113C132.238 229.113 142.113 219.238 142.113 207.056C142.113 194.875 132.238 185 120.056 185C107.875 185 98 194.875 98 207.056C98 219.238 107.875 229.113 120.056 229.113Z" fill="url(#paint4_radial_149_561)"/>
<path style="mix-blend-mode:soft-light" d="M120.056 229.113C132.238 229.113 142.113 219.238 142.113 207.056C142.113 194.875 132.238 185 120.056 185C107.875 185 98 194.875 98 207.056C98 219.238 107.875 229.113 120.056 229.113Z" fill="url(#paint5_radial_149_561)"/>
<g filter="url(#filter5_f_149_561)">
<path d="M131.004 199.234C131.626 196.65 127.973 193.556 122.846 192.323C117.719 191.09 113.059 192.185 112.438 194.769C111.816 197.353 115.469 200.447 120.596 201.68C125.723 202.913 130.383 201.818 131.004 199.234Z" fill="#74819B"/>
<path d="M122.73 192.809C125.234 193.411 127.353 194.463 128.758 195.653C130.188 196.865 130.762 198.107 130.519 199.117C130.275 200.128 129.2 200.973 127.376 201.402C125.583 201.823 123.217 201.796 120.713 201.194C118.209 200.592 116.09 199.54 114.685 198.35C113.255 197.138 112.681 195.896 112.924 194.886C113.167 193.875 114.243 193.03 116.067 192.601C117.86 192.18 120.226 192.207 122.73 192.809Z" stroke="black"/>
</g>
<g filter="url(#filter6_f_149_561)">
<path d="M109.941 203.011C110.338 203.011 110.659 202.689 110.659 202.293C110.659 201.896 110.338 201.575 109.941 201.575C109.545 201.575 109.224 201.896 109.224 202.293C109.224 202.689 109.545 203.011 109.941 203.011Z" fill="white"/>
</g>
<g filter="url(#filter7_f_149_561)">
<path d="M115.803 192.877C116.118 192.822 116.343 192.602 116.305 192.386C116.268 192.169 115.982 192.038 115.667 192.093C115.352 192.148 115.127 192.368 115.165 192.585C115.203 192.801 115.489 192.932 115.803 192.877Z" fill="white"/>
</g>
<g filter="url(#filter8_f_149_561)">
<path d="M117.694 192.768C118.206 192.679 118.574 192.335 118.515 192.001C118.457 191.666 117.995 191.467 117.483 191.556C116.971 191.646 116.604 191.989 116.662 192.324C116.721 192.658 117.183 192.857 117.694 192.768Z" fill="white"/>
</g>
<g filter="url(#filter9_f_149_561)">
<path fill-rule="evenodd" clip-rule="evenodd" d="M113.609 198.206C113.972 198.08 114.617 198.043 115.001 198.039C115.094 198.039 115.188 198.023 115.28 197.991C115.732 197.833 115.971 197.338 115.813 196.886C115.655 196.434 115.161 196.195 114.708 196.353C114.479 196.432 114.122 196.4 113.931 196.251C113.639 196.024 113.241 195.945 112.866 196.076C112.278 196.281 111.967 196.924 112.173 197.512C112.378 198.101 113.021 198.411 113.609 198.206ZM118.013 197.498C117.968 197.543 117.872 197.522 117.851 197.461C117.693 197.009 117.199 196.77 116.746 196.928C116.294 197.086 116.055 197.58 116.213 198.033C116.371 198.485 116.865 198.724 117.318 198.566C117.446 198.521 117.558 198.449 117.648 198.358C117.693 198.313 117.789 198.335 117.809 198.395C117.967 198.847 118.462 199.086 118.914 198.928C119.006 198.897 119.113 198.929 119.181 198.997C119.353 199.166 119.635 199.229 119.905 199.134C120.066 199.078 120.289 199.095 120.442 199.169C120.539 199.216 120.655 199.253 120.783 199.274C121.161 199.337 121.493 199.234 121.524 199.045C121.555 198.856 121.274 198.652 120.896 198.589C120.815 198.576 120.736 198.57 120.662 198.571C120.534 198.573 120.403 198.453 120.36 198.332C120.25 198.016 119.867 197.861 119.505 197.987C119.497 197.991 119.487 197.985 119.486 197.976C119.478 197.925 119.465 197.874 119.448 197.824C119.29 197.371 118.795 197.132 118.343 197.29C118.214 197.335 118.103 197.407 118.013 197.498ZM126.512 201.541C126.67 201.993 126.431 202.488 125.979 202.646C125.526 202.804 125.031 202.565 124.874 202.112C124.805 201.915 124.593 201.724 124.397 201.652C124.232 201.592 124.101 201.471 124.043 201.306C124.028 201.263 124.019 201.22 124.015 201.176C124.003 201.036 123.895 200.874 123.757 200.851C123.378 200.788 123.097 200.584 123.128 200.395C123.16 200.206 123.492 200.104 123.87 200.166C124.163 200.215 124.398 200.348 124.474 200.494C124.479 200.502 124.489 200.507 124.498 200.504C124.86 200.377 125.243 200.532 125.354 200.848C125.37 200.895 125.38 200.943 125.383 200.991C125.383 201.003 125.396 201.011 125.407 201.007C125.86 200.85 126.354 201.089 126.512 201.541Z" fill="white" fill-opacity="0.5"/>
</g>
<mask id="mask0_149_561" style="mask-type:alpha" maskUnits="userSpaceOnUse" x="98" y="185" width="45" height="45">
<path d="M120.056 229.113C132.238 229.113 142.113 219.238 142.113 207.056C142.113 194.875 132.238 185 120.056 185C107.875 185 98 194.875 98 207.056C98 219.238 107.875 229.113 120.056 229.113Z" fill="url(#paint6_radial_149_561)"/>
<path d="M120.056 229.113C132.238 229.113 142.113 219.238 142.113 207.056C142.113 194.875 132.238 185 120.056 185C107.875 185 98 194.875 98 207.056C98 219.238 107.875 229.113 120.056 229.113Z" fill="url(#paint7_radial_149_561)"/>
<path d="M120.056 229.113C132.238 229.113 142.113 219.238 142.113 207.056C142.113 194.875 132.238 185 120.056 185C107.875 185 98 194.875 98 207.056C98 219.238 107.875 229.113 120.056 229.113Z" fill="url(#paint8_radial_149_561)"/>
</mask>
<g mask="url(#mask0_149_561)">
<g filter="url(#filter10_f_149_561)">
<path d="M137.305 201.575C137.305 201.575 141.866 208.355 142.113 211.375C136.565 242.257 107.98 240.095 116.964 231.531C128.128 220.89 137.305 220.497 137.305 201.575Z" fill="white" fill-opacity="0.08"/>
</g>
</g>
<mask id="mask1_149_561" style="mask-type:alpha" maskUnits="userSpaceOnUse" x="98" y="169" width="119" height="66">
<path d="M120.056 229.113C132.238 229.113 142.113 219.238 142.113 207.056C142.113 194.875 132.238 185 120.056 185C107.875 185 98 194.875 98 207.056C98 219.238 107.875 229.113 120.056 229.113Z" fill="url(#paint9_radial_149_561)"/>
<path d="M120.056 229.113C132.238 229.113 142.113 219.238 142.113 207.056C142.113 194.875 132.238 185 120.056 185C107.875 185 98 194.875 98 207.056C98 219.238 107.875 229.113 120.056 229.113Z" fill="url(#paint10_radial_149_561)"/>
<mask id="mask2_149_561" style="mask-type:alpha" maskUnits="userSpaceOnUse" x="112" y="129" width="105" height="106">
<path d="M164.293 234.586C193.174 234.586 216.586 211.174 216.586 182.293C216.586 153.412 193.174 130 164.293 130C135.412 130 112 153.412 112 182.293C112 211.174 135.412 234.586 164.293 234.586Z" fill="url(#paint11_radial_149_561)"/>
<path d="M164.293 234.586C193.174 234.586 216.586 211.174 216.586 182.293C216.586 153.412 193.174 130 164.293 130C135.412 130 112 153.412 112 182.293C112 211.174 135.412 234.586 164.293 234.586Z" fill="url(#paint12_radial_149_561)"/>
<path d="M164.293 234.586C193.174 234.586 216.586 211.174 216.586 182.293C216.586 153.412 193.174 130 164.293 130C135.412 130 112 153.412 112 182.293C112 211.174 135.412 234.586 164.293 234.586Z" fill="url(#paint13_radial_149_561)"/>
</mask>
<g mask="url(#mask2_149_561)">
<path d="M205.187 169.297C205.187 169.297 216.002 185.373 216.586 192.533C203.434 265.749 135.662 260.624 156.962 240.321C183.43 215.09 205.187 214.159 205.187 169.297Z" fill="#91A4C9" fill-opacity="0.08"/>
</g>
<path d="M120.056 229.113C132.238 229.113 142.113 219.238 142.113 207.056C142.113 194.875 132.238 185 120.056 185C107.875 185 98 194.875 98 207.056C98 219.238 107.875 229.113 120.056 229.113Z" fill="url(#paint14_radial_149_561)"/>
</mask>
<g mask="url(#mask1_149_561)">
</g>
</g>
<defs>
<filter id="filter0_f_149_561" x="-0.0039978" y="0.0896301" width="336.487" height="316.729" filterUnits="userSpaceOnUse" color-interpolation-filters="sRGB">
<feFlood flood-opacity="0" result="BackgroundImageFix"/>
<feBlend mode="normal" in="SourceGraphic" in2="BackgroundImageFix" result="shape"/>
<feGaussianBlur stdDeviation="73.0352" result="effect1_foregroundBlur_149_561"/>
</filter>
<filter id="filter1_f_149_561" x="130.821" y="161.507" width="18.9842" height="18.9845" filterUnits="userSpaceOnUse" color-interpolation-filters="sRGB">
<feFlood flood-opacity="0" result="BackgroundImageFix"/>
<feBlend mode="normal" in="SourceGraphic" in2="BackgroundImageFix" result="shape"/>
<feGaussianBlur stdDeviation="3.89521" result="effect1_foregroundBlur_149_561"/>
</filter>
<filter id="filter2_f_149_561" x="144.897" y="138.998" width="18.3045" height="17.4988" filterUnits="userSpaceOnUse" color-interpolation-filters="sRGB">
<feFlood flood-opacity="0" result="BackgroundImageFix"/>
<feBlend mode="normal" in="SourceGraphic" in2="BackgroundImageFix" result="shape"/>
<feGaussianBlur stdDeviation="3.89521" result="effect1_foregroundBlur_149_561"/>
</filter>
<filter id="filter3_f_149_561" x="148.441" y="137.704" width="20.0027" height="18.5546" filterUnits="userSpaceOnUse" color-interpolation-filters="sRGB">
<feFlood flood-opacity="0" result="BackgroundImageFix"/>
<feBlend mode="normal" in="SourceGraphic" in2="BackgroundImageFix" result="shape"/>
<feGaussianBlur stdDeviation="3.89521" result="effect1_foregroundBlur_149_561"/>
</filter>
<filter id="filter4_f_149_561" x="137.683" y="148.342" width="49.7985" height="31.3769" filterUnits="userSpaceOnUse" color-interpolation-filters="sRGB">
<feFlood flood-opacity="0" result="BackgroundImageFix"/>
<feBlend mode="normal" in="SourceGraphic" in2="BackgroundImageFix" result="shape"/>
<feGaussianBlur stdDeviation="3.88395" result="effect1_foregroundBlur_149_561"/>
</filter>
<filter id="filter5_f_149_561" x="50.7589" y="130.206" width="141.924" height="133.591" filterUnits="userSpaceOnUse" color-interpolation-filters="sRGB">
<feFlood flood-opacity="0" result="BackgroundImageFix"/>
<feBlend mode="normal" in="SourceGraphic" in2="BackgroundImageFix" result="shape"/>
<feGaussianBlur stdDeviation="30.8051" result="effect1_foregroundBlur_149_561"/>
</filter>
<filter id="filter6_f_149_561" x="105.938" y="198.289" width="8.00731" height="8.00743" filterUnits="userSpaceOnUse" color-interpolation-filters="sRGB">
<feFlood flood-opacity="0" result="BackgroundImageFix"/>
<feBlend mode="normal" in="SourceGraphic" in2="BackgroundImageFix" result="shape"/>
<feGaussianBlur stdDeviation="1.64294" result="effect1_foregroundBlur_149_561"/>
</filter>
<filter id="filter7_f_149_561" x="111.875" y="188.795" width="7.7202" height="7.38072" filterUnits="userSpaceOnUse" color-interpolation-filters="sRGB">
<feFlood flood-opacity="0" result="BackgroundImageFix"/>
<feBlend mode="normal" in="SourceGraphic" in2="BackgroundImageFix" result="shape"/>
<feGaussianBlur stdDeviation="1.64294" result="effect1_foregroundBlur_149_561"/>
</filter>
<filter id="filter8_f_149_561" x="113.37" y="188.249" width="8.43699" height="7.82603" filterUnits="userSpaceOnUse" color-interpolation-filters="sRGB">
<feFlood flood-opacity="0" result="BackgroundImageFix"/>
<feBlend mode="normal" in="SourceGraphic" in2="BackgroundImageFix" result="shape"/>
<feGaussianBlur stdDeviation="1.64294" result="effect1_foregroundBlur_149_561"/>
</filter>
<filter id="filter9_f_149_561" x="108.833" y="192.737" width="21.0039" height="13.2343" filterUnits="userSpaceOnUse" color-interpolation-filters="sRGB">
<feFlood flood-opacity="0" result="BackgroundImageFix"/>
<feBlend mode="normal" in="SourceGraphic" in2="BackgroundImageFix" result="shape"/>
<feGaussianBlur stdDeviation="1.63819" result="effect1_foregroundBlur_149_561"/>
</filter>
<filter id="filter10_f_149_561" x="110.302" y="196.646" width="36.7395" height="45.3424" filterUnits="userSpaceOnUse" color-interpolation-filters="sRGB">
<feFlood flood-opacity="0" result="BackgroundImageFix"/>
<feBlend mode="normal" in="SourceGraphic" in2="BackgroundImageFix" result="shape"/>
<feGaussianBlur stdDeviation="2.46441" result="effect1_foregroundBlur_149_561"/>
</filter>
<radialGradient id="paint0_radial_149_561" cx="0" cy="0" r="1" gradientUnits="userSpaceOnUse" gradientTransform="translate(148.977 171.463) rotate(25.085) scale(117.87 114.42)">
<stop offset="0.354167" stop-color="white"/>
<stop offset="0.810035" stop-color="#91A4C9"/>
</radialGradient>
<radialGradient id="paint1_radial_149_561" cx="0" cy="0" r="1" gradientUnits="userSpaceOnUse" gradientTransform="translate(139.848 214.319) rotate(-53.858) scale(68.2032 76.2228)">
<stop stop-opacity="0.61"/>
<stop offset="1" stop-opacity="0"/>
</radialGradient>
<radialGradient id="paint2_radial_149_561" cx="0" cy="0" r="1" gradientUnits="userSpaceOnUse" gradientTransform="translate(196.628 182.293) rotate(180) scale(89.2697 71.8246)">
<stop stop-color="white" stop-opacity="0"/>
<stop offset="0.827012" stop-color="white" stop-opacity="0"/>
<stop offset="1" stop-color="white"/>
</radialGradient>
<radialGradient id="paint3_radial_149_561" cx="0" cy="0" r="1" gradientUnits="userSpaceOnUse" gradientTransform="translate(113.596 202.489) rotate(25.085) scale(49.7156 48.2604)">
<stop offset="0.354167" stop-color="#91A4C9"/>
<stop offset="0.810035" stop-color="#454D5D"/>
</radialGradient>
<radialGradient id="paint4_radial_149_561" cx="0" cy="0" r="1" gradientUnits="userSpaceOnUse" gradientTransform="translate(109.746 220.564) rotate(-53.858) scale(28.767 32.1496)">
<stop stop-opacity="0.61"/>
<stop offset="1" stop-opacity="0"/>
</radialGradient>
<radialGradient id="paint5_radial_149_561" cx="0" cy="0" r="1" gradientUnits="userSpaceOnUse" gradientTransform="translate(133.695 207.056) rotate(180) scale(37.6525 30.2945)">
<stop stop-color="white" stop-opacity="0"/>
<stop offset="0.827012" stop-color="white" stop-opacity="0"/>
<stop offset="1" stop-color="white"/>
</radialGradient>
<radialGradient id="paint6_radial_149_561" cx="0" cy="0" r="1" gradientUnits="userSpaceOnUse" gradientTransform="translate(113.596 202.489) rotate(25.085) scale(49.7156 48.2604)">
<stop offset="0.354167" stop-color="#91A4C9"/>
<stop offset="0.810035" stop-color="#485264"/>
</radialGradient>
<radialGradient id="paint7_radial_149_561" cx="0" cy="0" r="1" gradientUnits="userSpaceOnUse" gradientTransform="translate(109.746 220.564) rotate(-53.858) scale(28.767 32.1496)">
<stop stop-opacity="0.61"/>
<stop offset="1" stop-opacity="0"/>
</radialGradient>
<radialGradient id="paint8_radial_149_561" cx="0" cy="0" r="1" gradientUnits="userSpaceOnUse" gradientTransform="translate(133.695 207.056) rotate(180) scale(37.6525 30.2945)">
<stop stop-color="white" stop-opacity="0"/>
<stop offset="0.827012" stop-color="white" stop-opacity="0"/>
<stop offset="1" stop-color="white"/>
</radialGradient>
<radialGradient id="paint9_radial_149_561" cx="0" cy="0" r="1" gradientUnits="userSpaceOnUse" gradientTransform="translate(113.596 202.489) rotate(25.085) scale(49.7156 48.2604)">
<stop offset="0.354167" stop-color="#91A4C9"/>
<stop offset="0.810035" stop-color="#485264"/>
</radialGradient>
<radialGradient id="paint10_radial_149_561" cx="0" cy="0" r="1" gradientUnits="userSpaceOnUse" gradientTransform="translate(109.746 220.564) rotate(-53.858) scale(28.767 32.1496)">
<stop stop-opacity="0.61"/>
<stop offset="1" stop-opacity="0"/>
</radialGradient>
<radialGradient id="paint11_radial_149_561" cx="0" cy="0" r="1" gradientUnits="userSpaceOnUse" gradientTransform="translate(148.977 171.463) rotate(25.085) scale(117.87 114.42)">
<stop offset="0.354167" stop-color="#DAE5FC"/>
<stop offset="0.810035" stop-color="#91A4C9"/>
</radialGradient>
<radialGradient id="paint12_radial_149_561" cx="0" cy="0" r="1" gradientUnits="userSpaceOnUse" gradientTransform="translate(139.848 214.319) rotate(-53.858) scale(68.2032 76.2228)">
<stop stop-opacity="0.61"/>
<stop offset="1" stop-opacity="0"/>
</radialGradient>
<radialGradient id="paint13_radial_149_561" cx="0" cy="0" r="1" gradientUnits="userSpaceOnUse" gradientTransform="translate(196.628 182.293) rotate(180) scale(89.2697 71.8246)">
<stop stop-color="white" stop-opacity="0"/>
<stop offset="0.827012" stop-color="white" stop-opacity="0"/>
<stop offset="1" stop-color="white"/>
</radialGradient>
<radialGradient id="paint14_radial_149_561" cx="0" cy="0" r="1" gradientUnits="userSpaceOnUse" gradientTransform="translate(133.695 207.056) rotate(180) scale(37.6525 30.2945)">
<stop stop-color="white" stop-opacity="0"/>
<stop offset="0.827012" stop-color="white" stop-opacity="0"/>
<stop offset="1" stop-color="white"/>
</radialGradient>
<clipPath id="clip0_149_561">
<rect width="143" height="134" fill="white" transform="translate(50 130)"/>
</clipPath>
</defs>
</svg>
