<svg width="36" height="36" viewBox="0 0 36 36" fill="none" xmlns="http://www.w3.org/2000/svg">
<ellipse cx="18" cy="17.9434" rx="18" ry="17.9434" fill="url(#paint0_linear_44_588)"/>
<path fill-rule="evenodd" clip-rule="evenodd" d="M15.7136 0.0981876C12.4679 0.519752 9.49059 1.75703 6.88839 3.76537C6.06649 4.39979 4.66761 5.77301 3.98438 6.61635C2.0403 9.01582 0.754429 11.846 0.205721 14.9332C0.0110746 16.0281 -0.0648712 18.6523 0.0633225 19.8514C0.419775 23.1851 1.69503 26.3274 3.7827 29.0161C4.41902 29.8356 5.79639 31.2302 6.64227 31.9114C9.75056 34.4146 13.7646 35.8857 17.4892 35.8866C17.9649 35.8867 18.3506 35.5011 18.3506 35.0254V28.8759V23.7988C18.3506 22.7308 17.4848 21.865 16.4168 21.865C15.3488 21.865 14.483 20.9992 14.483 19.9312V19.6566V19.382C14.483 18.314 15.3488 17.4482 16.4168 17.4482C17.4849 17.4482 18.3508 16.5707 18.351 15.5026C18.3516 12.897 18.4713 12.13 19.057 10.9808C19.6038 9.90803 20.5362 9.08025 21.6821 8.65021C22.7287 8.25746 23.5367 8.17725 25.5561 8.26573C26.4058 8.30296 27.2047 8.3528 27.3317 8.37657C27.4655 8.40161 27.5625 8.51842 27.5625 8.65455V10.3683V10.7168C27.5625 11.6053 26.851 12.3301 25.9627 12.3465C24.2784 12.3776 24.0186 12.4212 23.554 12.7511C23.4429 12.83 23.263 13.0751 23.1543 13.2959C23.0241 13.5602 22.9546 13.8502 22.9509 14.1448L22.933 15.5728C22.9201 16.6047 23.753 17.4482 24.7851 17.4482H25.1498C26.3308 17.4482 27.2574 18.4851 27.1075 19.6566L27.0727 19.929C26.9311 21.0358 25.9891 21.865 24.8732 21.865C23.7952 21.865 22.9214 22.7389 22.9214 23.8168V28.5566V34.8636C22.9214 35.0558 23.106 35.1942 23.2906 35.1402C25.1746 34.5886 27.4126 33.4244 29.1096 32.113C29.9327 31.4769 31.3312 30.1037 32.0136 29.2615C33.9568 26.8631 35.2182 24.095 35.7676 21.0237C36.0127 19.6529 36.0751 17.193 35.901 15.7656C35.2591 10.5036 32.3363 5.81409 27.879 2.89441C25.5687 1.38111 22.9932 0.437725 20.2463 0.0986784C19.1821 -0.0327056 16.723 -0.0329159 15.7136 0.0981876Z" fill="url(#paint1_linear_44_588)"/>
<defs>
<linearGradient id="paint0_linear_44_588" x1="1.45161" y1="5.38302" x2="36.0008" y2="7.00913" gradientUnits="userSpaceOnUse">
<stop stop-color="#0C2541"/>
<stop offset="0.485813" stop-color="#310A49"/>
<stop offset="1" stop-color="#052942"/>
</linearGradient>
<linearGradient id="paint1_linear_44_588" x1="5.42466" y1="5.98113" x2="30.5139" y2="9.32814" gradientUnits="userSpaceOnUse">
<stop stop-color="#F5F5F5"/>
<stop offset="0.477732" stop-color="#DEBAF4"/>
<stop offset="1" stop-color="#B0CAFC"/>
</linearGradient>
</defs>
</svg>
