<svg width="36" height="36" viewBox="0 0 36 36" fill="none" xmlns="http://www.w3.org/2000/svg">
<path d="M35.5 17.9434C35.5 27.5756 27.6665 35.3868 18 35.3868C8.33353 35.3868 0.5 27.5756 0.5 17.9434C0.5 8.31116 8.33353 0.5 18 0.5C27.6665 0.5 35.5 8.31116 35.5 17.9434Z" fill="url(#paint0_linear_44_591)" stroke="#E2E2EC"/>
<path fill-rule="evenodd" clip-rule="evenodd" d="M15.7141 0.0981909C12.4684 0.519769 9.4909 1.75709 6.88862 3.7655C6.06669 4.39993 4.66776 5.7732 3.98451 6.61657C2.04037 9.01612 0.754454 11.8464 0.205728 14.9337C0.0110749 16.0286 -0.0648734 18.6529 0.0633246 19.8521C0.637789 25.2252 3.61482 30.054 8.18958 33.0328C10.4659 34.515 13.0347 35.4429 15.8169 35.788C16.8883 35.9209 19.1399 35.917 20.247 35.7804C28.4089 34.7729 34.8837 28.3175 35.8942 20.1802C36.0353 19.0443 36.0353 16.8347 35.8942 15.6988C35.2465 10.4823 32.3158 5.80012 27.8799 2.89451C25.5696 1.38116 22.994 0.437739 20.247 0.0986817C19.1828 -0.0327067 16.7236 -0.032917 15.7141 0.0981909ZM22.684 7.77635C23.7238 7.86679 24.4355 8.05427 25.2428 8.45033C25.805 8.72607 26.0121 8.87906 26.5497 9.41506C27.0874 9.95106 27.2408 10.1576 27.5174 10.7181C28.2297 12.1612 28.2858 12.7592 28.2483 18.5004C28.2211 22.6713 28.2101 22.9926 28.0754 23.5875C27.5667 25.8335 26.1367 27.3536 24.0266 27.8917C23.0552 28.1393 22.1265 28.1845 17.9996 28.1845C12.8169 28.1845 12.1562 28.1155 10.7564 27.4287C10.1942 27.153 9.98703 27 9.44941 26.464C8.9118 25.928 8.75835 25.7214 8.48178 25.161C7.79451 23.7685 7.73073 23.1553 7.73073 17.9395C7.73073 12.7237 7.79451 12.1106 8.48178 10.7181C8.75955 10.1552 8.90948 9.95393 9.44941 9.41877C10.3242 8.55178 11.1177 8.14471 12.4686 7.86988C13.4395 7.67237 20.7223 7.6057 22.684 7.77635ZM13.6747 9.52934C12.2761 9.62462 11.3845 9.96277 10.6798 10.6653C9.9762 11.3669 9.6717 12.1973 9.55996 13.7193C9.47529 14.8729 9.47529 21.0061 9.55996 22.1598C9.67107 23.6735 9.9833 24.5193 10.6917 25.2255C11.4393 25.9708 12.2326 26.2438 13.9912 26.361C15.4865 26.4606 22.4119 26.4043 23.0582 26.2873C24.9904 25.9375 26.0217 24.9093 26.3725 22.983C26.4899 22.3386 26.5464 15.434 26.4464 13.9432C26.3278 12.1726 26.0625 11.4063 25.3075 10.6536C24.5842 9.93248 23.7555 9.63205 22.1929 9.52457C21.1049 9.44969 14.7926 9.45327 13.6747 9.52934ZM24.0565 11.3901C24.5079 11.6199 24.8079 12.2371 24.6817 12.6761C24.4042 13.6408 23.3706 13.9463 22.6878 13.2654C21.7375 12.3181 22.8596 10.7806 24.0565 11.3901ZM19.4412 12.894C20.363 13.1782 20.9988 13.5624 21.6943 14.2559C22.397 14.9564 22.7757 15.5832 23.0729 16.5373C23.3077 17.2916 23.3077 18.5875 23.0729 19.3417C22.7757 20.2959 22.397 20.9226 21.6943 21.6232C20.9917 22.3237 20.363 22.7013 19.406 22.9976C18.6495 23.2317 17.3497 23.2317 16.5931 22.9976C15.6361 22.7013 15.0075 22.3237 14.3048 21.6232C13.6022 20.9226 13.2235 20.2959 12.9263 19.3417C12.6914 18.5875 12.6914 17.2916 12.9263 16.5373C13.4665 14.803 14.7619 13.4713 16.4358 12.9293C17.0403 12.7336 17.4308 12.6865 18.2105 12.7151C18.702 12.7332 19.1136 12.793 19.4412 12.894ZM16.8934 14.6467C15.9722 14.9454 15.1204 15.7456 14.7556 16.6548C14.6146 17.0062 14.5917 17.1854 14.5917 17.9395C14.5917 18.6904 14.6149 18.8735 14.7534 19.2186C15.0927 20.0635 15.8702 20.8378 16.7203 21.1773C17.0623 21.3138 17.2485 21.3371 17.9996 21.3371C18.7507 21.3371 18.9368 21.3138 19.2789 21.1773C20.1289 20.8378 20.9064 20.0635 21.2457 19.2186C21.3843 18.8735 21.4074 18.6904 21.4074 17.9395C21.4074 17.1907 21.3841 17.0051 21.2471 16.6641C20.9054 15.8138 20.1225 15.0339 19.2825 14.7073C18.6953 14.479 17.5039 14.4488 16.8934 14.6467Z" fill="url(#paint1_linear_44_591)"/>
<defs>
<linearGradient id="paint0_linear_44_591" x1="1.45161" y1="5.38302" x2="36.0008" y2="7.00913" gradientUnits="userSpaceOnUse">
<stop stop-color="#0C2541"/>
<stop offset="0.485813" stop-color="#310A49"/>
<stop offset="1" stop-color="#052942"/>
</linearGradient>
<linearGradient id="paint1_linear_44_591" x1="5.42466" y1="5.98088" x2="30.5139" y2="9.32803" gradientUnits="userSpaceOnUse">
<stop stop-color="#F5F5F5"/>
<stop offset="0.477732" stop-color="#DEBAF4"/>
<stop offset="1" stop-color="#B0CAFC"/>
</linearGradient>
</defs>
</svg>
