<svg width="95" height="96" viewBox="0 0 95 96" fill="none" xmlns="http://www.w3.org/2000/svg">
<path d="M47.0794 95.6055C37.6987 95.6055 29.4575 93.6329 22.3562 89.6877C15.2548 85.6545 9.73151 80.0439 5.7863 72.8548C1.92877 65.6657 0 57.2932 0 47.737C0 40.5479 1.09589 34.0165 3.28767 28.1425C5.56712 22.2685 8.76715 17.2274 12.8877 13.0192C17.0959 8.81096 22.0931 5.61095 27.8794 3.41917C33.6657 1.13972 40.0658 0 47.0794 0C56.4602 0 64.6576 1.9726 71.6712 5.91781C78.7726 9.86301 84.2959 15.4301 88.2411 22.6192C92.1863 29.7205 94.1589 38.0932 94.1589 47.737C94.1589 54.9261 93.0189 61.4575 90.7397 67.3315C88.5477 73.2055 85.3479 78.2904 81.1397 82.5863C77.0192 86.7945 72.0658 90.0386 66.2794 92.3178C60.4931 94.5099 54.0931 95.6055 47.0794 95.6055ZM47.0794 75.3534C51.726 75.3534 55.6712 74.2576 58.9151 72.0658C62.1589 69.8739 64.6576 66.7178 66.411 62.5973C68.1644 58.4767 69.0411 53.5233 69.0411 47.737C69.0411 39.0575 67.1123 32.3069 63.2548 27.4849C59.3973 22.663 54.0055 20.2521 47.0794 20.2521C42.5205 20.2521 38.5753 21.3479 35.2438 23.5397C32 25.6438 29.5013 28.7562 27.7479 32.8767C25.9945 36.9096 25.1178 41.863 25.1178 47.737C25.1178 56.4164 27.0466 63.211 30.9041 68.1205C34.7616 72.9425 40.1534 75.3534 47.0794 75.3534Z" fill="url(#paint0_linear_44_691)"/>
<defs>
<linearGradient id="paint0_linear_44_691" x1="-0.291348" y1="-23.9014" x2="96.5602" y2="-20.094" gradientUnits="userSpaceOnUse">
<stop stop-color="#F5F5F5"/>
<stop offset="0.485813" stop-color="#DEBAF4"/>
<stop offset="1" stop-color="#B0CAFC"/>
</linearGradient>
</defs>
</svg>
